<?xml version="1.0" encoding="UTF-8"?>
<!--
  33774 — West Largo. Larger lots, fenced yards.
-->
<svg xmlns="http://www.w3.org/2000/svg" viewBox="0 0 1200 675" role="img"
     aria-label="33774 — West Largo">
  <title>33774 — West Largo</title>

  <defs>
    <linearGradient id="sky" x1="0" y1="0" x2="0" y2="1">
      <stop offset="0" stop-color="#F4E8D0"/>
      <stop offset="1" stop-color="#E8B65A" stop-opacity="0.4"/>
    </linearGradient>
  </defs>

  <rect width="1200" height="380" fill="url(#sky)"/>

  <rect y="380" width="1200" height="240" fill="#2D5A3D"/>
  <g opacity="0.18" stroke="#FAF6F0" stroke-width="2" fill="none">
    <path d="M 0 430 L 1200 425"/>
    <path d="M 0 480 L 1200 470"/>
    <path d="M 0 530 L 1200 515"/>
    <path d="M 0 580 L 1200 560"/>
  </g>

  <g fill="#FAF6F0">
    <rect y="395" width="1200" height="4"/>
    <rect y="425" width="1200" height="4"/>
    <rect x="0" y="390" width="6" height="40"/>
    <rect x="40" y="390" width="6" height="40"/>
    <rect x="80" y="390" width="6" height="40"/>
    <rect x="120" y="390" width="6" height="40"/>
    <rect x="160" y="390" width="6" height="40"/>
    <rect x="200" y="390" width="6" height="40"/>
    <rect x="240" y="390" width="6" height="40"/>
    <rect x="280" y="390" width="6" height="40"/>
    <rect x="320" y="390" width="6" height="40"/>
    <rect x="360" y="390" width="6" height="40"/>
    <rect x="400" y="390" width="6" height="40"/>
    <rect x="440" y="390" width="6" height="40"/>
    <rect x="480" y="390" width="6" height="40"/>
    <rect x="520" y="390" width="6" height="40"/>
    <rect x="560" y="390" width="6" height="40"/>
    <rect x="600" y="390" width="6" height="40"/>
    <rect x="640" y="390" width="6" height="40"/>
    <rect x="680" y="390" width="6" height="40"/>
    <rect x="720" y="390" width="6" height="40"/>
    <rect x="760" y="390" width="6" height="40"/>
    <rect x="800" y="390" width="6" height="40"/>
    <rect x="840" y="390" width="6" height="40"/>
    <rect x="880" y="390" width="6" height="40"/>
    <rect x="920" y="390" width="6" height="40"/>
    <rect x="960" y="390" width="6" height="40"/>
    <rect x="1000" y="390" width="6" height="40"/>
    <rect x="1040" y="390" width="6" height="40"/>
    <rect x="1080" y="390" width="6" height="40"/>
    <rect x="1120" y="390" width="6" height="40"/>
    <rect x="1160" y="390" width="6" height="40"/>
  </g>

  <g transform="translate(380 120)">
    <rect x="0" y="80" width="440" height="180" fill="#F4E8D0"/>
    <rect x="0" y="80" width="440" height="6" fill="#5C4A3A"/>
    <polygon points="0,80 80,20 360,20 440,80" fill="#5C4A3A"/>
    <rect x="80" y="20" width="280" height="6" fill="#3A2D24"/>
    <rect x="320" y="40" width="20" height="60" fill="#8B4A1E"/>
    <rect x="40" y="120" width="60" height="60" fill="#1A1F1B" opacity="0.55"/>
    <rect x="120" y="120" width="60" height="60" fill="#1A1F1B" opacity="0.55"/>
    <rect x="260" y="120" width="60" height="60" fill="#1A1F1B" opacity="0.55"/>
    <rect x="340" y="120" width="60" height="60" fill="#1A1F1B" opacity="0.55"/>
    <rect x="200" y="180" width="40" height="80" fill="#5C4A3A"/>
    <rect x="200" y="260" width="40" height="40" fill="#A8A8A0"/>
    <ellipse cx="10" cy="240" rx="40" ry="20" fill="#3A6B45"/>
    <ellipse cx="430" cy="240" rx="40" ry="20" fill="#3A6B45"/>
  </g>

  <g transform="translate(60 280)">
    <rect x="-10" y="80" width="20" height="80" fill="#5C4A3A"/>
    <ellipse cx="0" cy="60" rx="80" ry="70" fill="#3A6B45"/>
    <ellipse cx="0" cy="20" rx="60" ry="60" fill="#2D5A3D"/>
  </g>
  <g transform="translate(220 360)">
    <rect x="-2" y="0" width="4" height="40" fill="#5C4A3A"/>
    <rect x="-14" y="-14" width="28" height="20" rx="3" fill="#1A1F1B"/>
  </g>

  <rect y="620" width="1200" height="20" fill="#A8A8A0"/>
  <rect y="640" width="1200" height="35" fill="#3A3A36"/>
  <line x1="0" y1="655" x2="1200" y2="655" stroke="#FAF6F0" stroke-width="2" stroke-dasharray="16 14" opacity="0.55"/>

  <g font-family="Inter, system-ui, sans-serif">
    <text x="40" y="60" font-size="14" font-weight="700"
          fill="#B5651D" letter-spacing="3">WEST LARGO · 33774</text>
  </g>
  <g font-family="Inter, system-ui, sans-serif" fill="#FAF6F0" opacity="0.42">
    <text x="40" y="660" font-size="13" letter-spacing="3">PHOTO COMING SOON</text>
  </g>
</svg>